<svg version="1.1" xmlns="http://www.w3.org/2000/svg" xmlns:xlink="http://www.w3.org/1999/xlink" x="0px" y="0px"
	 viewBox="0 0 612 187.3" style="enable-background:new 0 0 612 187.3;" xml:space="preserve">
<style type="text/css">
	.st0{fill:#575757;}
	.st1{fill:none;}
	.st2{fill:url(#SVGID_1_);}
	.st3{fill:#D00000;}
	.st4{fill:url(#SVGID_2_);}
	.st5{fill:url(#SVGID_3_);}
</style>
<g>
	<g>
		<path class="st0" d="M268.2,135.4V48.7h4.5v96.4h-4.5L218.1,64l-3.5-5.8h-0.2v87h-4.7V48.7h4.9c1.5,2,16.3,26,44.4,72.2l9,14.6
			h0.2V135.4z"/>
		<path class="st0" d="M286.4,105.6c0,16.5,7,27.3,21.1,32.5c3.8,0.7,6.5,1.1,8,1.1h1.6c5.4,0,10.8-1.8,16.4-5.4
			c3.6-2.6,6.4-5.9,8.6-9.9c1.5-2.5,2.8-6.5,3.9-12.1V49.1h4.7v59.2c0,13.1-5,23.4-14.9,30.9c-5.9,3.9-12.7,5.8-20.5,5.8H314
			c-7.1,0-14.4-3.1-21.7-9.2c-4.1-4.6-6.7-8.9-8-13c-0.3-0.3-1.1-3.1-2.2-8.3c-0.4-3.2-0.6-6.1-0.6-8.5V49.1h4.9L286.4,105.6
			L286.4,105.6z"/>
		<path class="st0" d="M366.7,74.2h28v5.2h-28v28.9c0.1,4.1,1,8.6,2.9,13.7c1.1,3.1,4,7,8.8,11.9c5.9,4,11.8,6.1,17.6,6.1h0.6v5.2
			h-0.2c-10.1,0-18.7-4-25.8-11.9c-5.7-7.3-8.6-16.4-8.6-27.1V48.7h4.7V74.2z"/>
		<path class="st0" d="M437,74.7c9.4,0,17.5,3.4,24.3,10.3l3.3,4.5c3.5,6,5.3,12.6,5.3,19.7v1.6h-59.5v1.1c0,6,2,11.9,5.9,17.7
			c4.4,4.7,8.4,7.5,11.9,8.5c3.5,1.2,6.4,1.8,8.8,1.8c12,0,20.6-5.6,25.8-16.8c0.8-2,1.4-4.4,1.8-7.2h4.9v0.4
			c0,3.4-1.6,8.3-4.9,14.6c-3.8,5.4-8.7,9.5-14.7,12.1c-4.4,1.3-7.9,2-10.4,2h-3.3c-6.1,0-12.3-2.2-18.4-6.5c-5-5-8-8.9-9-11.7
			c-2.3-5.6-3.5-11.3-3.5-17s1.4-11.8,4.1-18.2c3.6-6.6,9-11.5,16.2-14.6C429.3,75.9,433.1,75.1,437,74.7z M410.8,105.6h54v-0.2
			c-0.8-5.6-2.2-9.8-4.3-12.8c-3-4.7-7-8.1-11.9-10.1c-4-1.6-7.6-2.4-10.8-2.5c-2.7,0-6.6,0.8-11.7,2.5c-3.3,1.6-6.6,4.3-9.8,7.8
			C412.7,95.8,410.8,100.9,410.8,105.6z"/>
		<path class="st0" d="M516.5,74.7h22.1V80h-23.5c-9.1,0-15.4,1.5-18.8,4.5c-4.9,2.7-8.6,8.1-11.2,16.4c-0.5,2.4-1,5.3-1.2,9
			c0.3,4.5,1,8.4,2,11.9c2.7,7.1,7.1,12.3,13.1,15.5c3.4,1.8,8.9,2.7,16.4,2.7h23.3v5.2h-29c-10,0-18.2-4.5-24.7-13.4
			c-2.1-3.3-3.7-7.4-4.9-12.3l-1.2-8.1c0-5.6,1.2-11.6,3.5-17.9l2.7-4.7c3.6-5.8,8.9-9.9,15.7-12.1
			C503.1,75.3,508.4,74.7,516.5,74.7z"/>
		<path class="st0" d="M552.1,90.4h0.2c2.9-5.7,7.6-10,14.1-13c3.8-1.9,8.5-2.9,14.1-2.9h0.8c5.8,0,12.1,2.4,18.8,7.2
			c4.8,4.5,8,9,9.4,13.7c1.6,3.1,2.5,8.4,2.5,15.9v33.8h-4.7v-34.7c0-13.9-5.9-23.5-17.6-28.7c-2.5-0.9-5.8-1.5-10-1.8
			c-7,0-13.5,2.6-19.4,7.8l-2,2.5c-4.1,5.3-6.1,12.8-6.1,22.6v32.3h-4.7V48.4h4.7L552.1,90.4L552.1,90.4z"/>
	</g>
	<g>
		<path class="st0" d="M294,187.3h-1.4L280.8,162h1.9l5.6,12.1c0.8,1.8,1.6,3.5,2.4,5.3s1.6,3.5,2.4,5.4c0.8-1.8,1.6-3.6,2.4-5.4
			c0.8-1.7,1.6-3.5,2.4-5.3l5.6-12.1h1.9L294,187.3z"/>
		<path class="st0" d="M319.2,187.3V162h17v1.7H321v9.5h12.3v1.7H321v10.6h15.6v1.7h-17.4V187.3z"/>
		<path class="st0" d="M368.1,187.3c-4.4-5.4-8.1-10-11.1-13.7s-5.4-6.6-7.1-8.8c0,2.2,0,5.1,0,8.8s0,8.3,0,13.7h-1.8V162h1.7
			c4.4,5.4,8.1,10,11.1,13.7s5.4,6.6,7.1,8.7c0-2.1,0-5.1,0-8.7c0-3.7,0-8.3,0-13.7h1.8v25.3H368.1z"/>
		<path class="st0" d="M394.2,163.7v23.6h-1.8v-23.6h-10V162h21.8v1.7H394.2z"/>
		<path class="st0" d="M437,182.1c-0.4,1.4-1,2.5-1.8,3.4c-0.8,0.8-1.9,1.4-3.1,1.8c-1.3,0.4-2.8,0.5-4.5,0.5s-3.2-0.2-4.5-0.5
			c-1.3-0.4-2.3-1-3.1-1.8c-0.8-0.8-1.4-2-1.8-3.4s-0.6-3.1-0.6-5.2v-15h1.8v14.9c0,1.7,0.1,3.1,0.4,4.3s0.7,2.1,1.3,2.9
			c0.6,0.7,1.4,1.3,2.5,1.6c1,0.3,2.4,0.5,3.9,0.5c1.6,0,3-0.2,4-0.5c1.1-0.3,1.9-0.8,2.5-1.6c0.6-0.7,1-1.7,1.3-2.9
			c0.2-1.2,0.4-2.6,0.4-4.3v-14.9h1.8v15C437.6,179,437.4,180.7,437,182.1z"/>
		<path class="st0" d="M473,187.3l-10.8-10.5h-8.4v10.5H452V162h8.7c4.4,0,7.5,0.6,9.5,1.9c2,1.3,3,3,3,5.3c0,1-0.2,2-0.7,2.8
			c-0.4,0.8-1.1,1.6-1.8,2.2c-0.8,0.6-1.7,1.2-2.7,1.6c-1,0.4-2.2,0.7-3.4,0.8l11.1,10.7H473z M470.8,167.2
			c-0.3-0.6-0.8-1.2-1.6-1.8c-0.8-0.5-1.9-0.9-3.3-1.3c-1.4-0.3-3.3-0.5-5.7-0.5h-6.6V175h8.9c1.4,0,2.7-0.2,3.8-0.5
			c1.1-0.3,2-0.8,2.7-1.3s1.3-1.2,1.6-1.9c0.4-0.7,0.5-1.4,0.5-2.1C471.2,168.5,471.1,167.8,470.8,167.2z"/>
		<path class="st0" d="M487.9,187.3V162h17v1.7h-15.1v9.5h12.3v1.7h-12.3v10.6h15.6v1.7h-17.5V187.3z"/>
		<path class="st0" d="M538.1,183.1c-0.6,0.9-1.3,1.7-2.3,2.4s-2.3,1.3-3.7,1.7s-3,0.6-4.7,0.6c-2.9,0-5.2-0.4-7-1.1
			c-1.8-0.8-3.3-1.8-4.5-3.2l1.4-1.2c0.9,1.2,2.2,2.1,3.8,2.8s3.7,1,6.3,1c1.6,0,3-0.2,4.2-0.5c1.2-0.4,2.3-0.8,3.2-1.4
			c0.7-0.5,1.3-1.1,1.7-1.7c0.4-0.7,0.6-1.4,0.6-2.1c0-1-0.2-1.8-0.7-2.4c-0.5-0.6-1-1-1.6-1.3c-0.3-0.2-0.6-0.3-1-0.5
			c-0.4-0.1-0.9-0.3-1.4-0.5c-0.6-0.2-1.3-0.4-2.2-0.6c-0.9-0.2-1.9-0.4-3.2-0.7s-2.4-0.5-3.2-0.8c-0.8-0.2-1.5-0.4-2.1-0.5
			c-0.5-0.2-1-0.3-1.3-0.5c-0.4-0.1-0.7-0.3-1-0.5c-0.7-0.4-1.3-0.9-1.8-1.7s-0.8-1.7-0.8-2.9c0-0.8,0.2-1.7,0.7-2.5
			s1.2-1.5,2.3-2.1c1-0.5,2.1-0.9,3.4-1.1c1.3-0.2,2.7-0.3,4.3-0.3c1.4,0,2.7,0.1,3.7,0.3c1.1,0.2,2,0.5,2.9,0.8
			c0.8,0.4,1.5,0.8,2.1,1.4c0.6,0.5,1.1,1.2,1.5,1.9l-1.6,0.9c-0.3-0.5-0.7-1-1.2-1.5c-0.5-0.4-1-0.8-1.7-1.1s-1.5-0.5-2.4-0.7
			s-2-0.2-3.3-0.2c-1.4,0-2.7,0.1-3.9,0.3s-2.2,0.5-3,1c-1.4,0.8-2.1,1.8-2.1,3.2c0,0.7,0.2,1.3,0.5,1.8c0.4,0.5,0.8,0.9,1.4,1.2
			c0.3,0.2,0.7,0.3,1.1,0.4c0.4,0.1,0.9,0.3,1.5,0.4c0.6,0.2,1.3,0.3,2.1,0.5s1.9,0.4,3.1,0.7c1,0.2,2,0.4,2.8,0.6
			c0.8,0.2,1.5,0.4,2.1,0.6c0.6,0.2,1.2,0.4,1.7,0.6c0.5,0.2,0.9,0.5,1.4,0.7c0.7,0.5,1.3,1.1,1.9,1.9c0.6,0.8,0.9,1.8,0.9,3
			C538.9,181.2,538.6,182.2,538.1,183.1z"/>
	</g>
	<g>
		<path class="st0" d="M549.7,161.4c0,1.8-1.4,3.2-3.2,3.2s-3.3-1.4-3.3-3.2s1.4-3.2,3.3-3.2C548.3,158.3,549.7,159.7,549.7,161.4z
			 M544,161.4c0,1.4,1,2.5,2.5,2.5c1.4,0,2.4-1.1,2.4-2.5s-1-2.5-2.4-2.5S544,160.1,544,161.4z M546,163.1h-0.7v-3.2
			c0.3-0.1,0.7-0.1,1.2-0.1c0.6,0,0.9,0.1,1.1,0.2c0.2,0.1,0.3,0.4,0.3,0.7s-0.3,0.6-0.7,0.7l0,0c0.3,0.1,0.5,0.3,0.6,0.8
			s0.2,0.7,0.2,0.8h-0.8c-0.1-0.1-0.2-0.4-0.2-0.8c-0.1-0.3-0.3-0.5-0.7-0.5H546V163.1z M546,161.3h0.3c0.4,0,0.7-0.1,0.7-0.5
			c0-0.3-0.2-0.5-0.7-0.5c-0.2,0-0.3,0-0.4,0v1H546z"/>
	</g>
</g>
<g>
	<path class="st1" d="M54,82.3c-4.1,0-8.3-0.1-12.7-0.5C44.2,82.1,48.5,82.4,54,82.3z"/>
	
		<radialGradient id="SVGID_1_" cx="869.1387" cy="448.1977" r="41.0307" gradientTransform="matrix(2.190000e-02 0.9998 -0.9998 2.190000e-02 566.965 -821.0466)" gradientUnits="userSpaceOnUse">
		<stop  offset="0" style="stop-color:#FFFFFF"/>
		<stop  offset="1" style="stop-color:#898A8D"/>
	</radialGradient>
	<path class="st2" d="M158.1,18.8c-0.8-1.2-2.3-2.5-3.5-3.3c-4.3-2.1-10-4.9-14.5-6.8c1.3,0.7,3,1.8,4,2.9
		C157.9,29,121.6,81.7,54,82.3c-5.5,0.1-9.8-0.2-12.7-0.5C114,98.5,170.9,39.6,158.1,18.8z"/>
	<path class="st3" d="M144.1,11.6c-0.9-1.2-2.6-2.3-4-2.9l-5.7-2.1l-24.8-6.2c20.4,5.8,10.9,43.8-31.5,67.8
		c-15.7,8.9-29.4,12-36.8,13.6c4.3,0.4,8.6,0.5,12.7,0.5C121.6,81.7,157.9,29,144.1,11.6z"/>
</g>
<g>
	<path class="st1" d="M143.4,56.8c-2.2,3.2-5.9,8.5-9.5,16.1C136.5,67.6,139.7,62.2,143.4,56.8z"/>
	
		<radialGradient id="SVGID_2_" cx="1330.353" cy="-688.9958" r="41.0315" gradientTransform="matrix(-0.8768 -0.4809 0.4809 -0.8768 1613.749 188.148)" gradientUnits="userSpaceOnUse">
		<stop  offset="0" style="stop-color:#FFFFFF"/>
		<stop  offset="1" style="stop-color:#898A8D"/>
	</radialGradient>
	<path class="st4" d="M133.9,73c3.7-7.6,7.3-13,9.5-16.1c-50.8,54.6-28.2,133.3-3.8,132.6c1.4,0,3.3-0.7,4.6-1.3
		c4-2.7,9.3-6.3,13.1-9.2c-1.2,0.8-3,1.7-4.5,1.9C131.5,184.1,106,129.2,133.9,73z"/>
	<path class="st3" d="M136.7,95.5c0.1-18.1,4.4-31.5,6.6-38.7c-3.7,5.4-6.9,10.8-9.5,16.1c-27.9,56.2-2.4,111.1,18.9,107.9
		c1.5-0.2,3.3-1.2,4.5-1.9l4.7-3.9c10-9.3,10.6-9.9,16.3-16.6l1.5-1.8C164.5,171.5,136.4,144.2,136.7,95.5z"/>
</g>
<g>
	<path class="st1" d="M114,157.7c-1.7-3.5-4.4-9.4-9.2-16.4C108.1,146.4,111.2,151.8,114,157.7z"/>
	
		<radialGradient id="SVGID_3_" cx="114.2328" cy="-519.9346" r="41.0301" gradientTransform="matrix(0.8549 -0.5189 0.5189 0.8549 217.0038 589.8879)" gradientUnits="userSpaceOnUse">
		<stop  offset="0" style="stop-color:#FFFFFF"/>
		<stop  offset="1" style="stop-color:#898A8D"/>
	</radialGradient>
	<path class="st5" d="M1.8,103.8c7.9-20,68.4-14.2,102.9,37.6c4.8,7,7.6,12.8,9.2,16.4C92.1,86.4,12.7,66.6,1,88.1
		c-0.7,1.3-1,3.2-1.2,4.7c0.3,4.8,0.8,11.2,1.4,15.9C1.2,107.2,1.3,105.2,1.8,103.8z"/>
	<path class="st3" d="M104.8,141.3C70.2,89.5,9.7,83.8,1.8,103.8c-0.5,1.4-0.6,3.4-0.6,4.9l1,6C5.3,128,5.5,128.8,8.5,137l0.8,2.2
		c-5.2-20.5,32.5-31.3,74.5-6.6c15.6,9.1,25.1,19.5,30.2,25.1C111.2,151.8,108.1,146.4,104.8,141.3z"/>
</g>
</svg>
